<svg aria-hidden="true" style="position:absolute;width:0;height:0;overflow:hidden" xmlns="http://www.w3.org/2000/svg">
  <defs>
    <symbol id="logo" viewBox="0 0 107 32">
      <path fill="#ff6b0a" style="fill:var(--color1, #ff6b0a)" d="M106.667 0v32H59.536V0h47.131zM74.42 8.811v13.927l.001.044a.842.842 0 0 1-.001.087c-.007.08.015.128.107.115a.485.485 0 0 1 .066-.001l.033.001h3.582c.075.001.112.001.129-.017s.016-.051.014-.116l-.001-.078V8.83l-.001-.033a.485.485 0 0 1 .001-.066c.008-.082-.02-.125-.109-.115-.018.002-.036.001-.054.001l-.028-.001h-3.55l-.062-.001c-.065-.001-.098-.001-.114.015s-.016.049-.015.116l.001.064zm19.579-.194h-5.863c-1.954 0-3.908 0-5.86-.002h-.133c-.066-.003-.089.028-.084.089a.486.486 0 0 1 0 .054v3.398c0 .072-.001.107.017.124s.051.017.118.016H85.923c.12 0 .18 0 .209.03s.029.087.029.2v10.335c-.001.059-.001.09.014.106.017.018.052.017.127.017h3.571c.111 0 .166 0 .193-.028s.027-.08.027-.186V12.488l-.001-.059c-.001-.063-.001-.097.015-.114.018-.019.055-.018.133-.018h3.798c.162 0 .162 0 .164-.159V8.759c.001-.072.001-.108-.016-.126s-.053-.017-.123-.016L94 8.618z"/>
      <path fill="#010101" style="fill:var(--color2, #010101)" d="m47.132 0 12.403 16-12.403 16H0V0h47.132zm-26.38 13.662.215.174a.371.371 0 0 0 .106-.107.256.256 0 0 1 .02-.026c.254-.302.507-.606.76-.91.507-.606 1.012-1.212 1.518-1.82.101-.122.097-.177-.018-.276a12.617 12.617 0 0 0-.277-.233c-.803-.657-1.685-1.17-2.684-1.467a9.43 9.43 0 0 0-2.043-.353c-.905-.061-1.802-.031-2.691.174-3.112.716-5.434 3.292-5.707 6.594a7.795 7.795 0 0 0 .225 2.638c.519 1.96 1.645 3.461 3.434 4.45.975.539 2.03.823 3.14.912.94.076 1.87.018 2.788-.189 1.553-.35 2.925-1.056 4.146-2.067a.333.333 0 0 0 .137-.289c-.004-1.572-.004-3.145-.003-4.717v-1.179a.66.66 0 0 0-.003-.062c-.003-.046-.006-.092.006-.134.015-.049-.012-.077-.037-.104-.021-.022-.042-.044-.039-.077.007-.054-.03-.062-.073-.062h-6.556l-.038.001c-.026.001-.052.002-.077-.001-.066-.007-.087.026-.083.087a.657.657 0 0 1 .001.077l-.001.038V17.839l-.001.074c-.001.063-.002.096.014.112s.052.017.125.016H19.772c.072-.001.107-.001.124.016.016.016.015.048.014.11l-.001.078v.679c0 .308 0 .311-.279.445-.818.391-1.681.503-2.573.391-.991-.123-1.784-.591-2.365-1.401-.378-.527-.585-1.122-.662-1.763-.097-.818.002-1.605.373-2.348.448-.892 1.125-1.533 2.098-1.827.682-.207 1.373-.153 2.056-.003.619.135 1.159.437 1.657.816.182.138.359.281.539.427zm18.346-2.98c-1.528-1.39-3.348-2.052-5.229-2.066-.869.002-1.518.072-2.207.251-1.998.521-3.563 1.638-4.602 3.422-1.067 1.83-1.283 3.793-.687 5.812.667 2.257 2.089 3.9 4.29 4.815 1.69.701 3.44.795 5.206.332 2.051-.537 3.624-1.725 4.654-3.578.869-1.562 1.102-3.238.778-4.987-.291-1.572-1.017-2.919-2.203-4zm-8.437 3.528c.666-1.227 1.729-1.815 2.762-1.838 2.094-.005 3.464 1.173 3.837 2.806.226.984.125 1.94-.358 2.834-.57 1.05-1.458 1.661-2.654 1.797-1.156.133-2.165-.194-2.99-1.025a3.579 3.579 0 0 1-.983-1.914c-.172-.928-.066-1.827.386-2.66z"/>
    </symbol>
    <symbol id="javascript" viewBox="0 0 32 32">
      <path fill="#f7df1e" style="fill:var(--color3, #f7df1e)" d="M0 0h32v32H0V0z"/>
      <path style="fill:var(--color4, #000)" d="m8.414 26.741 2.449-1.482c.473.838.902 1.546 1.933 1.546.988 0 1.611-.387 1.611-1.89V14.69h3.007v10.267c0 3.115-1.826 4.532-4.489 4.532-2.406 0-3.802-1.246-4.511-2.75zm10.634-.322 2.448-1.418c.645 1.053 1.482 1.826 2.964 1.826 1.246 0 2.041-.623 2.041-1.482 0-1.031-.816-1.396-2.191-1.997l-.752-.323c-2.17-.923-3.609-2.083-3.609-4.532 0-2.256 1.718-3.974 4.404-3.974 1.912 0 3.287.666 4.274 2.406l-2.341 1.504c-.516-.924-1.074-1.289-1.933-1.289-.881 0-1.439.558-1.439 1.289 0 .902.558 1.268 1.847 1.826l.752.322c2.556 1.096 3.995 2.212 3.995 4.726 0 2.707-2.127 4.189-4.983 4.189-2.792 0-4.597-1.332-5.477-3.072z"/>
    </symbol>
    <symbol id="icon-x" viewBox="0 0 32 32">
<path stroke-linejoin="round" stroke-linecap="round" stroke-miterlimit="4" stroke-width="3" d="M24 8l-16 16M8 8l16 16"></path>
</symbol>
    <symbol id="header-logo" viewBox="0 0 336 32">
      <path d="M29.082 0.314h-4.009c-1.237 0-2.24 0.983-2.24 2.195v3.929c0 1.212 1.003 2.195 2.24 2.195h4.009c1.237 0 2.24-0.983 2.24-2.195v-3.929c0-1.212-1.003-2.195-2.24-2.195zM6.73 23.040h-4.318c-1.332 0-2.412 0.983-2.412 2.195v3.929c0 1.213 1.080 2.195 2.412 2.195h4.318c1.332 0 2.412-0.983 2.412-2.195v-3.929c0-1.212-1.080-2.195-2.412-2.195zM6.25 11.582h-4.009c-1.237 0-2.24 0.983-2.24 2.195v3.929c0 1.212 1.003 2.195 2.24 2.195h4.009c1.237 0 2.24-0.983 2.24-2.195v-3.929c0-1.212-1.003-2.195-2.24-2.195zM17.766 22.978h-4.009c-1.237 0-2.24 0.983-2.24 2.195l-0 3.929c0 1.212 1.003 2.195 2.241 2.195h4.009c1.237 0 2.24-0.983 2.24-2.195v-3.929c0-1.213-1.003-2.195-2.24-2.195zM6.25 0.086h-4.009c-1.237 0-2.24 0.983-2.24 2.195v3.929c0 1.212 1.003 2.195 2.24 2.195h4.009c1.237 0 2.24-0.983 2.24-2.195v-3.929c0-1.212-1.003-2.195-2.24-2.195zM18.076 11.697h-4.009c-1.237 0-2.24 0.983-2.24 2.195v3.929c0 1.212 1.003 2.195 2.24 2.195h4.009c1.237 0 2.24-0.983 2.24-2.195v-3.929c0-1.212-1.003-2.195-2.24-2.195zM29.333 22.978h-4.010c-1.237 0-2.24 0.983-2.24 2.195v3.929c0 1.212 1.003 2.195 2.24 2.195h4.009c1.237 0 2.24-0.983 2.24-2.195v-3.929c0-1.213-1.003-2.195-2.24-2.195zM17.591 0.224h-4.009c-1.237 0-2.24 0.983-2.24 2.195v3.929c0 1.212 1.003 2.195 2.24 2.195h4.009c1.237 0 2.24-0.984 2.24-2.196v-3.929c0-1.212-1.003-2.195-2.24-2.195zM29.044 11.926h-4.010c-1.237 0-2.24 0.983-2.24 2.195v3.929c0 1.212 1.003 2.195 2.24 2.195h4.009c1.237 0 2.24-0.983 2.24-2.195v-3.929c0-1.212-1.003-2.195-2.24-2.195zM52.602 28c-7.576 0-12.602-4.704-12.602-12.032 0-7.168 4.955-11.968 12.422-11.968 6.283 0 10.699 3.296 11.345 8.256h-5.206c-0.503-2.848-2.908-4.448-6.139-4.448-4.524 0-7.216 3.264-7.216 8.16 0 5.376 3.016 8.224 7.396 8.224 3.806 0 6.247-1.92 6.498-4.8v-0.32h-7.001v-3.584h11.848v2.944c-0.215 5.728-4.739 9.568-11.345 9.568zM67.086 27.68v-23.36h12.602c6.427 0 8.976 2.784 8.976 6.816 0 3.616-2.872 5.344-6.211 5.76v0.096c2.154 0.48 3.124 1.536 4.021 3.616 1.149 2.624 1.328 5.76 2.8 6.88v0.192h-5.745c-1.221-1.088-1.508-4.512-2.154-6.592-0.646-2.144-2.046-2.4-4.667-2.4h-4.596v8.992h-5.026zM72.112 14.976h7.037c2.944 0 4.308-1.536 4.308-3.52 0-2.176-1.687-3.424-4.308-3.424h-7.037v6.944zM92.002 27.68v-23.36h17.916v3.712h-12.889v5.568h11.633v3.712h-11.633v6.56h13.069v3.808h-18.095zM113.587 27.68v-23.36h17.916v3.712h-12.889v5.568h11.633v3.712h-11.633v6.56h13.069v3.808h-18.095zM135.172 27.68v-23.36h6.104l8.688 12.896c2.657 3.904 2.98 5.184 2.98 5.184h0.108l-0.072-18.080h5.026v23.36h-6.139l-9.012-13.28c-2.046-3.008-2.585-4.832-2.585-4.832h-0.072v18.112h-5.026zM161.788 27.68v-4.736h5.242v4.736h-5.242zM170.805 27.68v-23.36h5.026v9.344h12.028v-9.344h5.026v23.36h-5.026v-10.304h-12.028v10.304h-5.026zM195.033 27.68l10.053-23.36h5.458l10.196 23.36h-5.386l-2.118-5.376h-10.878l-2.118 5.376h-5.207zM203.794 18.592h8.006l-2.334-5.76c-1.616-4.256-1.652-5.024-1.652-5.024h-0.072s0 0.768-1.614 5.024l-2.334 5.76zM222.88 27.68v-23.36h12.602c6.428 0 8.976 2.784 8.976 6.816 0 3.616-2.872 5.344-6.21 5.76v0.096c2.154 0.48 3.122 1.536 4.020 3.616 1.15 2.624 1.328 5.76 2.8 6.88v0.192h-5.744c-1.22-1.088-1.508-4.512-2.154-6.592-0.646-2.144-2.046-2.4-4.668-2.4h-4.594v8.992h-5.028zM227.908 14.976h7.036c2.944 0 4.308-1.536 4.308-3.52 0-2.176-1.688-3.424-4.308-3.424h-7.036v6.944zM253.126 27.68l-9.622-23.36h5.386s5.206 13.088 5.744 14.688c0.862 2.56 1.256 3.872 1.256 3.872h0.072c-0.036 0 0.36-1.312 1.256-3.872 0.576-1.6 5.566-14.688 5.566-14.688h5.206l-9.264 23.36h-5.6zM270.048 27.68v-23.36h17.916v3.712h-12.89v5.568h11.634v3.712h-11.634v6.56h13.070v3.808h-18.096zM300.622 28c-6.678 0-10.7-3.232-10.7-8.032h5.746c-0.072 2.72 1.938 4.224 4.954 4.224 3.196 0 4.702-1.12 4.702-2.784s-1.292-2.368-5.888-3.488c-4.2-1.024-8.796-2.24-8.796-7.040 0-3.808 3.734-6.88 9.622-6.88 6.068 0 9.946 3.040 9.946 7.328h-5.566c-0.036-2.272-1.758-3.52-4.38-3.52-2.548 0-4.236 1.152-4.236 2.688 0 1.824 1.4 2.4 5.062 3.328 5.422 1.344 9.802 1.888 9.802 7.104 0 4.192-4.272 7.072-10.268 7.072zM319.074 27.68v-19.552h-7.934v-3.808h20.86v3.808h-7.898v19.552h-5.028z"></path>
    </symbol>
    <symbol id="header-burger" viewBox="0 0 42 32">
      <path fill="none" stroke="#fbfbfb" style="stroke: var(--color1, #fbfbfb)" stroke-linejoin="round" stroke-linecap="round" stroke-miterlimit="4" stroke-width="4.8" d="M3.733 3.2h34.133M3.733 16h17.067M3.733 28.8h34.133"></path>
    </symbol>
  </defs>
</svg>
