<svg xmlns="http://www.w3.org/2000/svg" width="500" height="329" fill="none"><path fill="#141414" d="M16.974 164.074H76.15V215.5H16.974v-51.426Z"/><path fill="#576F35" d="M6.773 164.074h54.132v51.427H6.773v-51.427Z"/><path fill="#141414" d="M6.626 215.703h54.5v-51.838h-54.5v51.838Zm54.095-.411H6.957v-51.016h53.764v51.016Z"/><path fill="#141414" d="M25.332 164.074v12.827l3.387-2.097 2.615 1.973 3.13-1.973 2.872 2.097v-12.827H25.332ZM37.338 189.312H49.82v.823H37.338v-.823ZM37.338 194.737H49.82v.822H37.338v-.822ZM37.338 200.167H49.82v.823H37.338v-.823Z"/><path fill="#FEFEFE" d="M13.475 188.201h20.217v14.101H13.475v-14.101Z"/><path fill="#141414" d="M13.291 202.468h20.585v-14.511H13.291v14.511Zm20.217-.411H13.659v-13.689h19.849v13.689Z"/><path fill="#F27B79" d="M74.533 224.915H58.735c-.737 0-1.473.37-1.915 1.027l-7.99 11.223c-1.29 1.809-.148 4.44 1.914 4.44h23.789v-16.69Z"/><path fill="#141414" d="M50.744 241.807h23.972v-17.102H58.734a2.51 2.51 0 0 0-2.062 1.11l-7.99 11.223c-.627.904-.774 2.097-.295 3.124.405.987 1.325 1.645 2.357 1.645Zm23.604-.411H50.744c-.884 0-1.657-.535-2.063-1.439-.368-.905-.294-1.932.258-2.672l7.991-11.223c.442-.617 1.068-.946 1.768-.946H74.31v16.28h.037ZM235.492 154.374c0 1.521-1.104 2.713-2.43 2.713h-7.954c-1.363 0-2.431-1.233-2.431-2.713 0-1.521 1.105-2.713 2.431-2.713h7.954c1.326-.041 2.43 1.192 2.43 2.713ZM205.48 157.575h9.795v15.499h-9.795v-15.499Z"/><path fill="#576F35" d="M230.704 272.513v-90.602c0-7.687-5.598-13.936-12.484-13.936h-36.088c-6.886 0-12.483 6.249-12.483 13.936v83.45c0 7.07-5.119 12.784-11.453 12.784H148.07c-6.334 0-11.453-5.714-11.453-12.784v-36.463s.258-11.017 6.334-12.621h-62.38s-25.925 23.596-31.375 61.622v4.193h181.508v-9.579Z"/><path fill="#141414" d="M49.012 282.3h181.876V181.914c0-7.811-5.671-14.142-12.668-14.142h-36.088c-6.996 0-12.667 6.331-12.667 14.142v83.449c0 6.948-5.045 12.58-11.269 12.58H148.07c-6.224 0-11.269-5.632-11.269-12.58V228.9c0-.123.295-10.852 6.224-12.414l1.546-.411H80.534l-.037.041c-.074.041-6.592 6.043-13.662 16.566-6.555 9.743-14.95 25.488-17.75 45.178l-.073 4.44Zm181.507-.411H49.38v-3.987c2.799-19.568 11.158-35.271 17.676-44.932 6.739-10.03 12.962-15.909 13.588-16.484h61.202c-5.118 2.507-5.376 11.962-5.413 12.414v36.463c0 7.153 5.229 12.991 11.637 12.991h10.126c6.408 0 11.637-5.838 11.637-12.991v-83.449c0-7.564 5.524-13.73 12.299-13.73h36.088c6.776 0 12.299 6.166 12.299 13.73v99.975Z"/><path fill="#141414" d="M206.106 167.935h4.419v91.096h-4.419v-91.096ZM0 214.059h84.254v4.686H0v-4.686ZM94.676 282.344h58.551v13.443H94.676v-13.443Z"/><path fill="#141414" d="M73.576 322.26c-14.725 0-26.661-15.147-26.661-33.832 0-18.685 11.936-33.832 26.66-33.832 14.725 0 26.661 15.147 26.661 33.832 0 18.685-11.936 33.832-26.66 33.832Z"/><path fill="#FEFEFE" d="M69.082 308.936c-9.579 0-17.344-9.865-17.344-22.034 0-12.169 7.765-22.034 17.344-22.034s17.344 9.865 17.344 22.034c0 12.169-7.765 22.034-17.344 22.034Z"/><path fill="#141414" d="M69.081 309.145c9.685 0 17.529-9.989 17.529-22.239 0-12.251-7.88-22.24-17.529-22.24-9.648 0-17.528 9.989-17.528 22.24 0 12.25 7.844 22.239 17.528 22.239Zm0-44.068c9.464 0 17.16 9.784 17.16 21.829 0 12.044-7.696 21.828-17.16 21.828-9.463 0-17.16-9.784-17.16-21.828 0-12.045 7.697-21.829 17.16-21.829Z"/><path fill="#141414" d="M78.252 287.026c0 4.892-2.062 9.249-8.654 9.249-3.866 0-5.302-4.357-5.302-9.249s1.472-8.88 5.302-8.88c6.592 0 8.654 3.947 8.654 8.88Z"/><path fill="#FEFEFE" d="M69.155 295.906c-3.864 0-6.996-3.976-6.996-8.88 0-4.904 3.132-8.88 6.996-8.88 3.864 0 6.997 3.976 6.997 8.88 0 4.904-3.133 8.88-6.997 8.88Z"/><path fill="#141414" d="M69.155 296.071c3.94 0 7.18-4.07 7.18-9.085 0-5.016-3.203-9.086-7.18-9.086s-7.18 4.07-7.18 9.086c0 5.015 3.24 9.085 7.18 9.085Zm0-17.718c3.756 0 6.813 3.905 6.813 8.674s-3.057 8.674-6.813 8.674-6.812-3.905-6.812-8.674 3.056-8.674 6.812-8.674ZM223.782 322.26c-14.725 0-26.661-15.147-26.661-33.832 0-18.685 11.936-33.832 26.661-33.832 14.724 0 26.66 15.147 26.66 33.832 0 18.685-11.936 33.832-26.66 33.832Z"/><path fill="#FEFEFE" d="M219.288 308.936c-9.578 0-17.344-9.865-17.344-22.034 0-12.169 7.766-22.034 17.344-22.034 9.579 0 17.345 9.865 17.345 22.034 0 12.169-7.766 22.034-17.345 22.034Z"/><path fill="#141414" d="M219.289 309.145c9.685 0 17.528-9.989 17.528-22.239 0-12.251-7.88-22.24-17.528-22.24s-17.528 9.989-17.528 22.24c0 12.25 7.843 22.239 17.528 22.239Zm0-44.068c9.464 0 17.16 9.784 17.16 21.829 0 12.044-7.696 21.828-17.16 21.828s-17.16-9.784-17.16-21.828c0-12.045 7.696-21.829 17.16-21.829Z"/><path fill="#141414" d="M228.458 287.026c0 4.892-2.062 8.88-8.653 8.88-3.867 0-5.303-3.988-5.303-8.88 0-4.892 1.473-8.88 5.303-8.88 6.591 0 8.653 3.947 8.653 8.88Z"/><path fill="#FEFEFE" d="M219.362 295.906c-3.864 0-6.996-3.976-6.996-8.88 0-4.904 3.132-8.88 6.996-8.88 3.864 0 6.997 3.976 6.997 8.88 0 4.904-3.133 8.88-6.997 8.88Z"/><path fill="#141414" d="M219.362 296.071c3.94 0 7.181-4.069 7.181-9.085 0-5.015-3.204-9.085-7.181-9.085s-7.181 4.07-7.181 9.085c0 5.016 3.241 9.085 7.181 9.085Zm0-17.718c3.756 0 6.813 3.906 6.813 8.674 0 4.769-3.057 8.675-6.813 8.675s-6.812-3.906-6.812-8.675c0-4.768 3.093-8.674 6.812-8.674ZM24.562 278.026h3.388c.442-3.905 3.424-6.906 7.033-6.906h75.269v15.868H34.983c-3.424 0-6.297-2.713-6.96-6.331h-3.461v-2.631Z"/><path fill="#576F35" d="M37.93 282.092s-4.676-41.848 39.108-53.235c15.798-4.111 52.07-6.783 43.931 53.235H37.93Z"/><path fill="#141414" d="M37.744 282.301h83.334l.036-.164c3.02-22.322.184-38.19-8.432-47.069-10.532-10.894-26.92-8.674-35.72-6.372-10.016 2.59-18.302 7.029-24.672 13.155-5.082 4.891-8.949 10.893-11.453 17.841-4.271 11.798-3.167 22.321-3.13 22.445l.037.164Zm83.039-.411H38.075c-.11-1.439-.81-11.223 3.13-22.075 3.904-10.771 13.294-24.871 35.83-30.749 8.728-2.261 24.968-4.481 35.389 6.289 8.543 8.798 11.342 24.46 8.359 46.535ZM138.826 218.746H83.921c-5.708 0-10.348-5.179-10.348-11.551 0-6.742 5.156-12.045 11.158-11.51l54.721 4.85c4.235.37 7.512 4.317 7.512 9.085 0 5.016-3.645 9.126-8.138 9.126Z"/><path fill="#576F35" d="M195.095 277.452h62.749s-1.031-10.318-7.255-19.691c-13.625-20.349-41.943-17.553-51.959 5.221-1.804 4.028-3.056 8.797-3.535 14.47Z"/><path fill="#141414" d="M194.874 277.652h63.154l-.037-.246c0-.124-1.104-10.483-7.291-19.774-6.444-9.66-16.755-14.757-27.581-13.647-10.753 1.109-19.959 8.18-24.709 18.909-1.878 4.317-3.094 9.167-3.536 14.512v.246Zm62.749-.411h-62.307c.442-5.18 1.621-9.948 3.462-14.141 4.677-10.606 13.772-17.594 24.414-18.663 10.679-1.11 20.88 3.946 27.25 13.483 5.598 8.427 6.96 17.759 7.181 19.321Z"/><path fill="#141414" d="M37.488 284.806h161.401v-5.426h58.882v-4.933h-58.992c-2.394 0-4.309 2.179-4.309 4.81v.616H37.488v4.933ZM150.722 311.403h10.79v-4.933h-9.28l-20.769-17.677-2.651 3.906 21.91 18.704Z"/><path fill="#576F35" d="M205.148 162.717h13.441c.81 0 1.62-.123 2.357-.329 4.271-1.192 7.438-5.508 7.438-10.647 0-3.042-1.104-5.755-2.872-7.728-1.252-1.398-2.799-2.385-4.566-2.878a9.133 9.133 0 0 0-2.394-.329H216.6c-6.738 0-13.183 3.741-16.681 10.195a25.64 25.64 0 0 0-.552 1.069c-2.247 4.851.883 10.647 5.781 10.647Z"/><path fill="#141414" d="M205.148 162.922h13.441c.81 0 1.62-.123 2.431-.329 4.455-1.233 7.585-5.673 7.585-10.852 0-3.001-1.031-5.797-2.945-7.893-1.289-1.439-2.91-2.467-4.64-2.96a9.87 9.87 0 0 0-2.431-.329h-1.951c-6.923 0-13.368 3.946-16.829 10.318-.184.37-.368.699-.553 1.069-1.104 2.302-1.068 5.056.148 7.317 1.252 2.302 3.388 3.659 5.744 3.659Zm13.441-21.911c.773 0 1.584.124 2.32.329 1.694.452 3.241 1.439 4.493 2.837 1.804 2.014 2.835 4.727 2.835 7.605 0 4.974-3.019 9.249-7.291 10.441a9.01 9.01 0 0 1-2.32.329h-13.441c-2.246 0-4.272-1.274-5.413-3.453-1.142-2.138-1.215-4.728-.147-6.906.184-.37.368-.699.552-1.069 3.388-6.249 9.722-10.113 16.497-10.113h1.915Z"/><path fill="#141414" d="M214.207 151.783c0 4.357 1.694 8.263 4.382 10.976h.037c5.413 0 9.832-4.892 9.832-10.976 0-3.042-1.104-5.755-2.872-7.728-1.767-1.974-4.235-3.207-6.923-3.207h-.037c-2.762 2.672-4.419 6.577-4.419 10.935Z"/><path fill="#FEFEFE" d="M216.894 151.779c0 4.193 1.547 7.934 4.051 10.647 4.271-1.192 7.438-5.509 7.438-10.647 0-3.042-1.104-5.756-2.872-7.729-1.252-1.398-2.799-2.384-4.566-2.878-2.504 2.631-4.051 6.414-4.051 10.607Z"/><path fill="#141414" d="m220.911 162.636.111-.042c4.455-1.233 7.585-5.673 7.585-10.852 0-3.001-1.031-5.796-2.946-7.893-1.288-1.439-2.909-2.466-4.639-2.96l-.111-.041-.074.082c-2.651 2.837-4.124 6.66-4.124 10.771 0 4.111 1.473 7.934 4.124 10.77l.074.165Zm.111-21.253a9.505 9.505 0 0 1 4.382 2.795c1.804 2.014 2.835 4.727 2.835 7.605 0 4.933-2.946 9.167-7.217 10.4-2.541-2.754-3.941-6.454-3.941-10.4 0-3.988 1.4-7.646 3.941-10.4Z"/><path fill="#A1C487" d="M191.929 152.728h7.255v3.329h-7.255v-3.329Z"/><path fill="#141414" d="M191.781 156.303h7.622v-3.741h-7.622v3.741Zm7.217-.411h-6.886v-2.918h6.886v2.918Z"/><path fill="#141414" d="M201.907 151.619h-2.909c-1.363 0-2.431 1.233-2.431 2.713 0 1.521 1.105 2.713 2.431 2.713h2.909c1.362 0 2.43-1.233 2.43-2.713s-1.068-2.713-2.43-2.713ZM193.327 154.374c0 1.521-1.105 2.713-2.431 2.713h-7.954c-1.362 0-2.43-1.233-2.43-2.713 0-1.521 1.105-2.713 2.43-2.713h7.954c1.326-.041 2.431 1.192 2.431 2.713Z"/><path fill="#fff" d="M61.9 271.57h35.94v2.302H61.9v-2.302Z"/><path fill="#141414" d="M61.717 274.079h36.309v-2.713H61.717v2.713Zm35.94-.411H62.086v-1.891h35.573v1.891Z"/><path fill="#fff" d="M61.9 265.488h35.94v2.302H61.9v-2.302Z"/><path fill="#141414" d="M61.717 267.993h36.309v-2.713H61.717v2.713Zm35.94-.411H62.086v-1.891h35.573v1.891Z"/><path fill="#fff" d="M61.9 259.443h35.94v2.302H61.9v-2.302Z"/><path fill="#141414" d="M61.717 261.954h36.309v-2.713H61.717v2.713Zm35.94-.411H62.086v-1.891h35.573v1.891ZM116.621 311.361h75.49v.823h-75.49v-.823ZM263.667 328.364H500V329H263.667v-.636ZM317.508 328.277h28.794s-1.817-6.923-14.575-12.611l.04-1.587.118-8.599h-13.627l-.236 7.585-.514 15.212Z"/><path fill="#141414" d="M317.272 328.502h29.268l-.079-.264c-.079-.265-1.975-7.055-14.575-12.699l.119-10.23h-14.022l-.711 23.193Zm28.755-.441h-28.321l.711-22.355h13.232l-.118 10.097.118.044c11.06 4.983 13.864 10.891 14.378 12.214ZM279.985 328.277h28.794s-1.817-6.923-14.575-12.611l.119-1.058 1.106-9.128h-13.627l-.632 7.937-1.185 14.86Z"/><path fill="#141414" d="M279.748 328.5h29.308l-.079-.265c-.079-.264-1.975-7.055-14.575-12.699l1.225-10.273h-14.022l-1.857 23.237Zm28.755-.441h-28.32l1.777-22.355h13.232l-1.224 10.097.158.044c11.099 4.983 13.864 10.891 14.377 12.214ZM450.066 328.277h28.794l-1.856-16.094-.751-6.703h-13.627l1.619 8.246.395 3.704c-13.39 4.585-14.574 10.847-14.574 10.847Z"/><path fill="#141414" d="M449.829 328.5h29.269l-2.647-23.237H462.39l1.698 8.51.356 3.483c-13.193 4.542-14.536 10.715-14.575 10.979l-.04.265Zm28.834-.441h-28.32c.434-1.235 2.844-6.482 14.377-10.406l.158-.044-.395-3.88-1.58-7.981h13.193l2.567 22.311ZM416.886 328.277h28.795l-.711-15.83-.316-6.967h-13.627l.355 8.466.079 2.999c-12.758 5.732-14.575 11.332-14.575 11.332Z"/><path fill="#141414" d="M416.61 328.5h29.308l-1.067-23.237H430.83l.394 8.73.08 2.866c-12.6 5.644-14.496 11.156-14.575 11.376l-.119.265Zm28.873-.441h-28.28c.592-1.235 3.515-6.041 14.338-10.891l.118-.044-.079-3.175-.356-8.245h13.232l1.027 22.355Z"/><path fill="#FFAC71" d="m340.141 12.392-20.026-5.026-2.172 8.51c-.553-.441-1.106-.706-1.62-.706-2.37 0-2.843 3.175-2.843 3.175-.672 3.44 1.342 5.556 2.251 7.055l-6.873 24.56 17.024 2.954 1.461-15.697c14.654 8.245 12.798-24.825 12.798-24.825Z"/><path fill="#141414" d="m326.08 53.09 1.462-15.61c2.883 1.544 5.371 1.632 7.346.177 6.557-4.85 5.53-24.472 5.491-25.31v-.176l-20.381-5.115-2.133 8.378c-.514-.397-1.027-.573-1.501-.573-2.489 0-3.042 3.307-3.042 3.35-.592 3 .79 4.983 1.778 6.438.158.22.316.441.434.662l-6.912 24.692 17.458 3.087Zm1.106-16.27-1.461 15.785-16.589-2.91 6.833-24.384-.04-.088c-.158-.22-.316-.485-.513-.75-.948-1.411-2.252-3.307-1.699-6.085.04-.132.474-2.998 2.647-2.998.474 0 .987.22 1.501.661l.237.177 2.211-8.599 19.71 4.939c.079 1.94.751 20.283-5.332 24.736-1.896 1.411-4.345 1.279-7.189-.308l-.316-.177Z"/><path fill="#141414" d="M346.145 2.781c-.908-.22-3.199 0-4.582 1.279l.237-.53c2.054-6.878-6.596-1.763-11.178-.749-.948.22-3.041.53-3.041.53-13.706-3.484-12.323 12.125-12.323 12.125 3.594-.573 4.66 4.895 4.66 4.895 3.674-1.94 4.819-4.718 4.938-5.909 3.554 1.808 12.679 5.248 20.223-.838 5.174-4.189 3.357-10.318 1.066-10.803ZM425.695 68.174s5.57-11.596 6.044-17.373l-2.331-12.698s-.276-12.17 14.062-9.216c0 0-.079-5.732 3.318-7.099 0 0-1.659 3.219-1.067 6.394 0 0 2.765-7.055 7.979-3.351 0 0 4.029 2.469 2.962 6.966 0 0 .079 5.115-6.201 5.203 0 0 .079 6.394 13.943 15.08 0 0 11.533 6.173 10.586 19.622-.948 13.448-11.692 21.914-11.692 21.914l-39.498.044 1.895-25.486Z"/><path fill="#FFAC71" d="m447.617 73.111-1.699-22.179s2.963-1.94 2.212-5.732c0 0-.711-3.042-3.436-.705l-.079-5.38s-9.559 4.013-15.128-2.028c0 0-4.029 20.988 4.463 20.944l-1.817 17.638 15.484-2.558Z"/><path fill="#141414" d="m431.936 75.933 15.918-2.601-1.699-22.267a5.883 5.883 0 0 0 2.212-5.909c0-.044-.316-1.323-1.264-1.675-.632-.221-1.343-.045-2.172.573l-.079-5.247-.277.088c-.079.044-9.479 3.88-14.93-1.984l-.237-.265-.079.397c-.118.573-2.686 14.242 1.027 19.313.869 1.19 2.015 1.807 3.397 1.852l-1.817 17.725Zm15.483-2.998-15.009 2.469 1.817-17.593h-.237c-1.383 0-2.489-.573-3.318-1.72-3.239-4.453-1.382-16.27-.988-18.563 5.096 5.115 13.232 2.47 14.812 1.896l.079 5.511.316-.264c.83-.706 1.541-.97 2.094-.75.75.265 1.027 1.367 1.027 1.367.711 3.616-2.015 5.424-2.133 5.512l-.119.088v.132l1.659 21.915ZM317.983 313.108l13.746.971.118-8.599H318.22l-.237 7.628ZM281.17 313.417l13.153 1.191 1.106-9.128h-13.627l-.632 7.937Z"/><path fill="#7A3145" d="m300.801 128.049.553 3.351 3.358 20.68 8.689 53.176.514 17.549 2.646 87.923h22.988l2.568-104.943-3.634-58.511-1.225-19.225h-36.457Z"/><path fill="#141414" d="M316.363 310.951h23.384v-.22l2.567-104.942-4.858-77.957h-36.892l12.64 77.472 3.159 105.647Zm22.989-.44h-22.633l-3.16-105.251-12.56-76.988h36.022l4.898 77.561-2.567 104.678ZM462.626 305.48l1.659 8.246 12.757-1.544-.789-6.702h-13.627ZM431.026 305.48l.356 8.51 13.587-1.543-.316-6.967h-13.627Z"/><path fill="#7A3145" d="M277.419 311.171h23.225l13.271-88.363 2.962-19.798 5.056-51.06 2.015-20.548h-37.721l.158 16.227.553 53.529-9.519 110.013Z"/><path fill="#141414" d="M277.221 311.388h23.62l.04-.176 16.233-108.161 7.11-71.872h-38.155l.711 69.976-9.559 110.233Zm23.265-.441h-22.83l9.479-109.748-.711-69.579h37.326l-7.07 71.343-16.194 107.984ZM420.047 192.337l6.083 118.391h21.013l-.711-75.047-.435-42.815 3.042-39.684 1.185-15.829-17.617-.309-9.953-.22-.83 17.769-1.777 37.744Z"/><path fill="#141414" d="M425.971 310.951h21.369v-.22l-1.145-117.862 4.265-55.734-27.964-.529-2.647 55.734 6.122 118.611Zm20.974-.441h-20.618l-6.083-118.17 2.607-55.293 27.175.529-4.226 55.293 1.145 117.641ZM286.227 131.404l.158 16.226c6.556 2.425 12.718 3.836 18.327 4.454 6.438.749 12.244.529 17.221-.177 7.465-1.014 13.153-3.13 16.51-4.674l-1.185-19.224h-36.457l.553 3.351h-15.127v.044Z"/><path fill="#141414" d="m432.37 135.194.237 1.852 2.251 18.299 5.965 48.238 5.608 32.1 12.956 74.341 19.236.441-8.848-109.219-2.449-57.057-.434-10.053-34.522 1.058Z"/><path fill="#141414" d="M478.86 310.686v-.265l-8.847-109.219-2.923-67.331-34.917 1.058 8.453 68.698 18.604 106.618 19.63.441Zm-12.165-176.33 2.883 66.89 8.848 108.955-18.88-.441-18.525-106.265-8.413-68.125 34.087-1.014Z"/><path fill="#7A3145" d="m424.313 71.344-15.325 22.267-21.408 4.674v17.197l25.081-2.646c1.738-.176 3.358-.882 4.78-1.984l10.032-7.937-3.16-31.57Z"/><path fill="#141414" d="m387.382 115.748 25.319-2.69c1.737-.176 3.436-.882 4.897-2.028l10.152-8.025-3.239-32.233-15.602 22.62-21.487 4.718v17.638h-.04Zm39.933-12.92-9.954 7.893a9.008 9.008 0 0 1-4.7 1.94l-24.884 2.646v-16.8l21.329-4.674.04-.044 15.049-21.826 3.12 30.865Z"/><path fill="#576F35" d="M326.87 47.273s-2.963 7.804-16.274-7.584l-22.83 9.392c-3.239 1.587-5.53 4.894-6.122 8.774l-3.595 22.664h12.482l-5.767 60.585s16.827 4.982 29.703 5.291c21.25.529 25.95-3.704 25.95-3.704l-.947-21.518-.158-48.943c.237-6.967-2.37-12.214-6.083-17.858l-6.359-7.099Z"/><path fill="#141414" d="M318.022 146.659c18.051 0 22.317-3.659 22.475-3.792l.079-.088-.948-21.65-.158-48.943c.237-6.835-2.291-12.17-6.122-17.99l-6.557-7.32-.119.309c-.039.044-.592 1.41-2.251 1.764-2.173.44-6.28-.838-13.706-9.436l-.079-.089-.118.044-22.831 9.392c-3.317 1.632-5.648 4.983-6.24 8.951l-3.634 22.929h12.481l-5.766 60.54.157.044c.158.044 16.985 4.983 29.743 5.335h3.594Zm22.159-4.1c-.711.529-6.28 4.1-25.753 3.615-12.008-.308-27.689-4.762-29.466-5.247l5.767-60.672h-12.442l3.555-22.4c.592-3.836 2.804-7.055 6.003-8.598l22.712-9.304c7.505 8.643 11.771 9.921 13.982 9.436a3.644 3.644 0 0 0 2.41-1.763l6.162 6.834c3.87 5.909 6.24 10.98 6.003 17.726l.158 48.943.909 21.43ZM340.497 70.024h63v54.764h-63V70.024Z"/><path fill="#D4BFC4" d="M329.634 70.024h57.628v54.764h-57.628V70.024Z"/><path fill="#141414" d="M329.437 125.005h58.023V69.8h-58.023v55.205Zm57.628-.441h-57.233V70.241h57.233v54.323Z"/><path fill="#141414" d="M349.384 70.024v13.67l3.595-2.205 2.764 2.072 3.318-2.072 3.081 2.204v-13.67h-12.758ZM362.102 96.92h13.311v.883h-13.311v-.883ZM362.102 102.698h13.311v.882h-13.311v-.882ZM362.102 108.471h13.311v.883h-13.311v-.883Z"/><path fill="#FEFEFE" d="M336.745 95.73h21.526v14.993h-21.526V95.731Z"/><path fill="#141414" d="M336.548 110.942h21.921V95.508h-21.921v15.434Zm21.526-.441h-21.131V95.949h21.131v14.552ZM421.824 154.596c3.318.529 7.861.97 13.035.75 4.345-.177 9.163-.794 14.14-2.161 6.043-1.676 12.324-4.498 18.288-8.996l-.434-10.053-34.482 1.058.236 1.852-9.953-.176-.83 17.726Z"/><path fill="#E78D4C" d="M387.381 126.596a5.252 5.252 0 0 0 1.382 1.632c.553.44 1.185.749 1.857.881l3.12.794c2.014.485 4.068.75 6.122.75h2.725c.79 0 1.581-.221 2.252-.662l2.923-1.808 3.081-.396 11.454-1.544v-9.833l-9.637 1.676-4.464.793-9.677-2.998s-1.698 3.924 3.595 5.909l-5.135 2.822h-8.611c-.908-.088-1.501 1.102-.987 1.984Z"/><path fill="#141414" d="M399.902 130.832h2.726c.829 0 1.658-.22 2.369-.705l2.884-1.764 14.654-1.984v-10.275l-14.299 2.514-9.795-3.043-.079.177c-.04.044-.632 1.455 0 3.042.474 1.279 1.58 2.293 3.278 2.999l-4.661 2.557h-8.571c-.513 0-.987.309-1.224.794a1.734 1.734 0 0 0 .039 1.587c.395.662.869 1.235 1.422 1.676.593.441 1.225.75 1.896.926l3.121.794c2.093.485 4.147.705 6.24.705Zm22.238-4.806-14.417 1.94-2.923 1.808a4.29 4.29 0 0 1-2.172.617h-2.726c-2.054 0-4.108-.264-6.083-.749l-3.12-.794c-.632-.177-1.224-.441-1.777-.882a5.323 5.323 0 0 1-1.343-1.543 1.3 1.3 0 0 1-.04-1.147.971.971 0 0 1 .869-.573h8.65l5.609-3.087-.474-.176c-1.817-.662-3.002-1.676-3.476-2.91-.434-1.103-.197-2.117-.039-2.514l9.558 2.955 13.904-2.426v9.481ZM348.673 36.335h39.064v33.952h-39.064V36.335Z"/><path fill="#576F35" d="M341.958 36.335h35.707v33.952h-35.707V36.335Z"/><path fill="#141414" d="M341.76 70.511h36.102V36.118H341.76v34.393Zm35.707-.44h-35.312V36.558h35.312V70.07Z"/><path fill="#141414" d="M354.164 36.335v8.466l2.251-1.367 1.738 1.279 2.054-1.279 1.896 1.367v-8.466h-7.939ZM362.062 52.831h8.255v.882h-8.255v-.882ZM362.062 56.396h8.255v.882h-8.255v-.882ZM362.062 60.015h8.255v.883h-8.255v-.883Z"/><path fill="#FEFEFE" d="M346.343 52.255h13.35v9.304h-13.35v-9.304Z"/><path fill="#141414" d="M346.145 61.777h13.745v-9.745h-13.745v9.745Zm13.35-.441H346.54v-8.863h12.955v8.863ZM410.883 127.743l11.454-1.544v-9.833l-9.637 1.676-1.817 9.701Z"/><path fill="#7A3145" d="m414.359 117.072 7.228-1.543 1.185-39.596c.079-2.514 1.106-4.895 2.844-6.526l7.386-6.879s1.422 10.098 15.207 0l12.758 5.115c3.595 1.455 6.32 4.85 7.189 8.995l8.058 43.697c.75 4.056-1.936 7.892-5.649 8.025l-3.831.132 1.856 13.934s-13.153 6.305-26.661 7.231c-15.562 1.102-20.658-3.043-20.46-3.616l.79-14.815-7.9.353v-14.507Z"/><path fill="#141414" d="M436.873 150.141c1.54 0 3.239-.044 5.055-.177 13.39-.926 26.583-7.187 26.741-7.275l.158-.088-.04-.177-1.817-13.669 3.634-.132c1.817-.088 3.516-1.014 4.661-2.645 1.146-1.588 1.58-3.66 1.185-5.644l-8.058-43.697c-.908-4.277-3.633-7.672-7.346-9.171l-12.837-5.16-.079.045c-5.332 3.924-9.559 5.291-12.245 3.968-2.251-1.102-2.646-3.792-2.646-3.792l-.04-.397-7.623 7.143c-1.777 1.676-2.844 4.101-2.923 6.703l-1.185 39.419-7.228 1.543v14.992l7.9-.353-.79 14.551c-.04.133 0 .221.079.353.474.838 4.621 3.66 15.444 3.66Zm31.48-7.805c-1.462.662-13.864 6.262-26.464 7.143-14.891 1.059-19.986-2.733-20.223-3.351v-.044l.79-15.08-7.939.353v-14.154l7.228-1.543 1.185-39.772c.079-2.47 1.106-4.763 2.765-6.35l7.109-6.658c.198.838.869 2.822 2.805 3.748 2.844 1.41 7.031.088 12.56-3.924l12.679 5.07c3.555 1.411 6.202 4.718 7.071 8.863l8.057 43.697a7.097 7.097 0 0 1-1.106 5.291c-1.066 1.499-2.646 2.381-4.345 2.469l-4.068.132 1.896 14.11Z"/><path fill="#141414" d="m466.7 128.242.023.442-44.799 2.865-.023-.441 44.799-2.866ZM421.43 115.746l34.087-7.848-3.081-18.96-.395.088 3.041 18.519-33.731 7.804.079.397Z"/><path fill="#FFAC71" d="M276.193 108.385c-.356 4.453 2.133 8.598 5.964 9.921l40.368 14.021 3.831 1.5a9.048 9.048 0 0 0 4.582.529l7.742-1.059c.473-.088.987-.22 1.421-.396l9.046-3.704a6.085 6.085 0 0 0 2.844-2.514l.118-.22c.474-.794-.039-1.852-.908-1.852h-14.536c4.226-2.998 3.91-5.644 3.91-5.644l-8.926 1.367-6.517.882-30.77-16.756 3.555-19.798.711-4.012h-20.46l-.198 2.337-1.777 25.398Z"/><path fill="#141414" d="M329.713 134.663c.435 0 .869-.044 1.264-.088l7.742-1.058a7.248 7.248 0 0 0 1.461-.397l9.046-3.704c1.224-.485 2.211-1.367 2.922-2.601l.119-.221a1.473 1.473 0 0 0 .039-1.455c-.237-.485-.632-.749-1.145-.749h-13.864c3.713-2.866 3.476-5.336 3.436-5.468l-.039-.22-9.124 1.366-6.478.838-30.572-16.623 4.306-23.943H277.97l-2.133 28c-.355 4.585 2.173 8.774 6.123 10.141l40.367 14.022 3.831 1.499c1.225.441 2.41.661 3.555.661Zm21.566-9.832a.86.86 0 0 1 .79.529c.158.308.158.705-.039 1.014l-.119.22c-.671 1.103-1.619 1.94-2.725 2.425l-9.045 3.704a7.153 7.153 0 0 1-1.382.397l-7.742 1.058a8.739 8.739 0 0 1-4.503-.529l-3.831-1.499-40.368-14.022c-3.752-1.322-6.162-5.291-5.846-9.7l2.094-27.603h20.026l-4.266 23.723.118.088 30.809 16.755 6.596-.882 8.69-1.322c-.04.661-.474 2.822-3.831 5.203l-.553.396h15.127v.045Z"/><path fill="#141414" d="m300.516 71.093.385.103-2.184 10.163-.385-.103 2.184-10.163Z"/><path fill="#141414" d="m278.129 82.9 19.867 1.72.751-4.058h-20.461l-.157 2.338ZM384.553 198.755a7.173 7.173 0 0 0-3.026.671 7.907 7.907 0 0 0-2.565 1.912 8.987 8.987 0 0 0-1.715 2.863 9.735 9.735 0 0 0-.602 3.378c0-2.341-.833-4.586-2.316-6.242-1.482-1.655-3.493-2.585-5.59-2.585 2.097 0 4.108-.93 5.59-2.586 1.483-1.655 2.316-3.9 2.316-6.242 0 2.342.832 4.587 2.315 6.242 1.483 1.656 3.493 2.586 5.59 2.586l.003.003Z"/><path fill="#576F35" d="M405.495 254.537c1.781 0 3.225-1.612 3.225-3.601 0-1.989-1.444-3.602-3.225-3.602-1.782 0-3.225 1.613-3.225 3.602 0 1.989 1.443 3.601 3.225 3.601ZM273.162 213.507c1.781 0 3.225-1.612 3.225-3.601 0-1.989-1.444-3.601-3.225-3.601-1.781 0-3.225 1.612-3.225 3.601 0 1.989 1.444 3.601 3.225 3.601ZM383.354 154.782c2.276 0 4.121-2.06 4.121-4.602 0-2.541-1.845-4.601-4.121-4.601-2.276 0-4.121 2.06-4.121 4.601 0 2.542 1.845 4.602 4.121 4.602Z"/><path fill="#141414" d="M157.61 250.707c-1.719 0-3.368.763-4.583 2.12-1.216 1.358-1.899 3.199-1.899 5.119 0-1.92-.683-3.761-1.899-5.119-1.215-1.357-2.864-2.12-4.583-2.12 1.719 0 3.368-.762 4.583-2.12 1.216-1.357 1.899-3.198 1.899-5.118 0 1.92.683 3.761 1.899 5.118 1.215 1.358 2.864 2.12 4.583 2.12Z"/><path fill="#A1C487" d="M195.513 245.956c1.188 0 2.151-1.075 2.151-2.401 0-1.327-.963-2.402-2.151-2.402-1.188 0-2.151 1.075-2.151 2.402 0 1.326.963 2.401 2.151 2.401Z"/><path fill="#141414" d="M256.391 125.125a7.202 7.202 0 0 0-3.025.671 7.9 7.9 0 0 0-2.566 1.913 8.944 8.944 0 0 0-1.714 2.863 9.713 9.713 0 0 0-.603 3.378c0-2.341-.833-4.587-2.315-6.242-1.483-1.656-3.494-2.586-5.59-2.586 2.096 0 4.107-.93 5.59-2.585 1.482-1.656 2.315-3.901 2.315-6.242 0 2.341.833 4.586 2.315 6.242 1.483 1.655 3.494 2.585 5.59 2.585l.003.003Z"/><path fill="#fff" stroke="#141414" d="M245.447 69.361h.017a6.814 6.814 0 0 1 2.947.561 7.512 7.512 0 0 1 2.533 1.812 8.59 8.59 0 0 1 1.713 2.792c.4 1.053.606 2.187.606 3.334 0 1.146-.206 2.28-.606 3.333a8.59 8.59 0 0 1-1.713 2.793 7.51 7.51 0 0 1-2.533 1.811 6.814 6.814 0 0 1-2.947.561H212.588a5.356 5.356 0 0 1-2.683-.708 6.145 6.145 0 0 1-2.117-2.024 7.133 7.133 0 0 1-1.064-2.91 7.416 7.416 0 0 1 .248-3.141 6.799 6.799 0 0 1 1.498-2.65 5.792 5.792 0 0 1 2.39-1.572 5.257 5.257 0 0 1 2.749-.173 5.596 5.596 0 0 1 2.526 1.26l.992.854-.17-1.298c-.493-3.782.367-7.623 2.386-10.693 2.017-3.069 5.024-5.112 8.359-5.711 3.334-.6 6.752.288 9.517 2.485 2.767 2.2 4.661 5.537 5.255 9.3l.095.598.569-.206a6.785 6.785 0 0 1 2.309-.408Z"/><path fill="#576F35" d="M252.727 328.08c1.188 0 2.151-1.075 2.151-2.402 0-1.326-.963-2.402-2.151-2.402-1.188 0-2.151 1.076-2.151 2.402 0 1.327.963 2.402 2.151 2.402Z"/></svg>