<svg xmlns="http://www.w3.org/2000/svg" width="24" height="24" fill="none"><path fill="#fff" d="M2 2h20v20H2z"/><rect width="24" height="24" fill="#576F35" rx="3"/><path fill="#FBFBFB" d="M20.176 2.196H17.67c-.773 0-1.4.614-1.4 1.372v2.456c0 .758.627 1.372 1.4 1.372h2.506c.774 0 1.4-.614 1.4-1.372V3.568c0-.758-.626-1.372-1.4-1.372ZM6.206 16.4H3.508C2.675 16.4 2 17.014 2 17.772v2.456c0 .758.675 1.372 1.508 1.372h2.698c.833 0 1.508-.614 1.508-1.372v-2.456c0-.758-.675-1.372-1.508-1.372ZM5.906 9.239H3.4c-.773 0-1.4.614-1.4 1.372v2.455c0 .758.627 1.373 1.4 1.373h2.506c.773 0 1.4-.615 1.4-1.373v-2.455c0-.758-.627-1.372-1.4-1.372ZM13.104 16.361h-2.506c-.773 0-1.4.615-1.4 1.372v2.456c0 .758.627 1.372 1.4 1.372h2.506c.773 0 1.4-.614 1.4-1.372v-2.456c0-.757-.627-1.372-1.4-1.372ZM5.906 2.054H3.4c-.773 0-1.4.614-1.4 1.372v2.456c0 .758.627 1.372 1.4 1.372h2.506c.773 0 1.4-.614 1.4-1.372V3.426c0-.758-.627-1.372-1.4-1.372ZM13.297 9.31h-2.506c-.773 0-1.4.615-1.4 1.373v2.456c0 .758.627 1.372 1.4 1.372h2.506c.774 0 1.4-.614 1.4-1.372v-2.456c0-.758-.626-1.372-1.4-1.372ZM20.333 16.361h-2.506c-.773 0-1.4.615-1.4 1.372v2.456c0 .758.627 1.372 1.4 1.372h2.506c.774 0 1.4-.614 1.4-1.372v-2.456c0-.757-.626-1.372-1.4-1.372ZM12.994 2.14h-2.506c-.773 0-1.4.614-1.4 1.372v2.456c0 .757.627 1.372 1.4 1.372h2.506c.773 0 1.4-.615 1.4-1.373V3.512c0-.758-.627-1.372-1.4-1.372ZM20.152 9.454h-2.506c-.773 0-1.4.614-1.4 1.372v2.455c0 .758.627 1.373 1.4 1.373h2.506c.774 0 1.4-.615 1.4-1.373v-2.455c0-.758-.626-1.372-1.4-1.372Z"/></svg>